ffmpeg started on 2016-12-10 at 03:07:13
Report written to "Output/x264/results/ffmpeg/crowd_run_2160p50placebo14000k.log"
Command line:
Tools/ffmpeg/ffmpeg -benchmark -y -i Input/y4m/crowd_run_2160p50.y4m -c:v libx264 -preset placebo -b:v 14000k -an Output/x264/encoded/crowd_run_2160p50placebo14000k.mkv
ffmpeg version N-82227-gdb23fde Copyright (c) 2000-2016 the FFmpeg developers
  built with gcc 5.4.0 (Ubuntu 5.4.0-6ubuntu1~16.04.2) 20160609
  configuration: --prefix=/home/jaroslav/ffmpeg_build --pkg-config-flags=--static --extra-cflags=-I/home/jaroslav/ffmpeg_build/include --extra-ldflags=-L/home/jaroslav/ffmpeg_build/lib --bindir=/home/jaroslav/bin --enable-gpl --enable-libass --enable-libfdk-aac --enable-libfreetype --enable-libmp3lame --enable-libopus --enable-libtheora --enable-libvorbis --enable-libvpx --enable-libx264 --enable-libx265 --enable-nvenc --enable-libmfx --enable-libxvid --enable-libgsm --enable-libopencore-amrnb --enable-version3 --enable-nonfree
  libavutil      55. 35.100 / 55. 35.100
  libavcodec     57. 66.101 / 57. 66.101
  libavformat    57. 57.100 / 57. 57.100
  libavdevice    57.  2.100 / 57.  2.100
  libavfilter     6. 66.100 /  6. 66.100
  libswscale      4.  3.100 /  4.  3.100
  libswresample   2.  4.100 /  2.  4.100
  libpostproc    54.  2.100 / 54.  2.100
Input #0, yuv4mpegpipe, from 'Input/y4m/crowd_run_2160p50.y4m':
  Duration: 00:00:10.00, start: 0.000000, bitrate: 4976642 kb/s
    Stream #0:0: Video: rawvideo (I420 / 0x30323449), yuv420p(progressive), 3840x2160, SAR 1:1 DAR 16:9, 50 fps, 50 tbr, 50 tbn, 50 tbc
[libx264 @ 0x41621c0] using SAR=1/1
[libx264 @ 0x41621c0] DPB size (16 frames, 518400 mbs) > level limit (5 frames, 184320 mbs)
[libx264 @ 0x41621c0] using cpu capabilities: MMX2 SSE2Fast SSSE3 SSE4.2 AVX FMA3 AVX2 LZCNT BMI2
[libx264 @ 0x41621c0] profile High, level 5.2
[libx264 @ 0x41621c0] 264 - core 148 - H.264/MPEG-4 AVC codec - Copyleft 2003-2016 - http://www.videolan.org/x264.html - options: cabac=1 ref=16 deblock=1:0:0 analyse=0x3:0x133 me=tesa subme=11 psy=1 psy_rd=1.00:0.00 mixed_ref=1 me_range=24 chroma_me=1 trellis=2 8x8dct=1 cqm=0 deadzone=21,11 fast_pskip=0 chroma_qp_offset=-2 threads=6 lookahead_threads=1 sliced_threads=0 nr=0 decimate=1 interlaced=0 bluray_compat=0 constrained_intra=0 bframes=16 b_pyramid=2 b_adapt=2 b_bias=0 direct=3 weightb=1 open_gop=0 weightp=2 keyint=250 keyint_min=25 scenecut=40 intra_refresh=0 rc_lookahead=60 rc=abr mbtree=1 bitrate=14000 ratetol=1.0 qcomp=0.60 qpmin=0 qpmax=69 qpstep=4 ip_ratio=1.40 aq=1:1.00
Output #0, matroska, to 'Output/x264/encoded/crowd_run_2160p50placebo14000k.mkv':
  Metadata:
    encoder         : Lavf57.57.100
    Stream #0:0: Video: h264 (libx264) (H264 / 0x34363248), yuv420p, 3840x2160 [SAR 1:1 DAR 16:9], q=-1--1, 14000 kb/s, 50 fps, 1k tbn, 50 tbc
    Metadata:
      encoder         : Lavc57.66.101 libx264
    Side data:
      cpb: bitrate max/min/avg: 0/0/14000000 buffer size: 0 vbv_delay: -1
Stream mapping:
  Stream #0:0 -> #0:0 (rawvideo (native) -> h264 (libx264))
Press [q] to stop, [?] for help
frame=   19 fps=0.0 q=0.0 size=       0kB time=00:00:00.00 bitrate=N/A speed=   0x    frame=   32 fps= 25 q=0.0 size=       0kB time=00:00:00.00 bitrate=N/A speed=   0x    frame=   38 fps= 20 q=0.0 size=       0kB time=00:00:00.00 bitrate=N/A speed=   0x    frame=   48 fps= 20 q=0.0 size=       0kB time=00:00:00.00 bitrate=N/A speed=   0x    frame=   57 fps= 20 q=0.0 size=       0kB time=00:00:00.00 bitrate=N/A speed=   0x    frame=   66 fps= 19 q=0.0 size=       0kB time=00:00:00.00 bitrate=N/A speed=   0x    frame=   75 fps= 19 q=0.0 size=       0kB time=00:00:00.00 bitrate=N/A speed=   0x    frame=   84 fps=3.4 q=0.0 size=       0kB time=00:00:00.00 bitrate=N/A speed=   0x    frame=   89 fps=3.1 q=39.0 size=       1kB time=-00:00:00.01 bitrate=N/A speed=N/A    frame=   90 fps=2.5 q=34.0 size=       1kB time=00:00:00.00 bitrate=5888.0kbits/s speed=2.77e-05x    frame=   91 fps=2.5 q=33.0 size=       1kB time=00:00:00.02 bitrate= 280.4kbits/s speed=0.000566x    frame=   92 fps=2.4 q=36.0 size=       1kB time=00:00:00.04 bitrate= 143.6kbits/s speed=0.00108x    frame=   95 fps=2.2 q=42.0 size=       1kB time=00:00:00.10 bitrate=  58.3kbits/s speed=0.00235x    frame=   96 fps=2.0 q=41.0 size=       1kB time=00:00:00.12 bitrate=  48.7kbits/s speed=0.00252x    frame=   97 fps=2.0 q=44.0 size=       1kB time=00:00:00.14 bitrate=  41.8kbits/s speed=0.00287x    frame=  100 fps=2.0 q=48.0 size=       1kB time=00:00:00.20 bitrate=  29.3kbits/s speed=0.004x    frame=  101 fps=2.0 q=47.0 size=       1kB time=00:00:00.22 bitrate=  26.6kbits/s speed=0.0043x    frame=  102 fps=1.8 q=48.0 size=       1kB time=00:00:00.24 bitrate=  24.4kbits/s speed=0.00422x    frame=  105 fps=1.7 q=47.0 size=       1kB time=00:00:00.30 bitrate=  19.6kbits/s speed=0.00489x    frame=  106 fps=1.7 q=48.0 size=       1kB time=00:00:00.32 bitrate=  18.3kbits/s speed=0.0051x    frame=  107 fps=1.7 q=48.0 size=       1kB time=00:00:00.34 bitrate=  17.3kbits/s speed=0.00533x    frame=  108 fps=1.7 q=48.0 size=       1kB time=00:00:00.36 bitrate=  16.3kbits/s speed=0.00553x    frame=  111 fps=1.5 q=47.0 size=       1kB time=00:00:00.42 bitrate=  14.0kbits/s speed=0.00571x    frame=  112 fps=1.5 q=47.0 size=       1kB time=00:00:00.44 bitrate=  13.4kbits/s speed=0.00592x    frame=  113 fps=1.5 q=46.0 size=       1kB time=00:00:00.46 bitrate=  12.8kbits/s speed=0.00612x    frame=  115 fps=1.4 q=47.0 size=       1kB time=00:00:00.50 bitrate=  11.8kbits/s speed=0.00614x    frame=  116 fps=1.4 q=47.0 size=       1kB time=00:00:00.52 bitrate=  11.3kbits/s speed=0.00631x    frame=  117 fps=1.4 q=46.0 size=       1kB time=00:00:00.54 bitrate=  10.9kbits/s speed=0.00648x    frame=  119 fps=1.3 q=46.0 size=       1kB time=00:00:00.58 bitrate=  10.1kbits/s speed=0.00631x    frame=  120 fps=1.3 q=46.0 size=       1kB time=00:00:00.60 bitrate=   9.8kbits/s speed=0.0064x    frame=  121 fps=1.3 q=46.0 size=       1kB time=00:00:00.62 bitrate=   9.5kbits/s speed=0.0065x    frame=  123 fps=1.2 q=46.0 size=       1kB time=00:00:00.66 bitrate=   8.9kbits/s speed=0.00648x    frame=  124 fps=1.2 q=46.0 size=       1kB time=00:00:00.68 bitrate=   8.6kbits/s speed=0.00659x    frame=  125 fps=1.2 q=46.0 size=       1kB time=00:00:00.70 bitrate=   8.4kbits/s speed=0.00668x    frame=  127 fps=1.1 q=46.0 size=       1kB time=00:00:00.74 bitrate=   7.9kbits/s speed=0.00637x    frame=  128 fps=1.1 q=46.0 size=       1kB time=00:00:00.76 bitrate=   7.7kbits/s speed=0.00646x    frame=  129 fps=1.1 q=46.0 size=       1kB time=00:00:00.78 bitrate=   7.5kbits/s speed=0.00654x    frame=  132 fps=1.0 q=46.0 size=       1kB time=00:00:00.84 bitrate=   7.0kbits/s speed=0.00665x    frame=  133 fps=1.0 q=46.0 size=       1kB time=00:00:00.86 bitrate=   6.8kbits/s speed=0.00664x    frame=  134 fps=1.0 q=46.0 size=       1kB time=00:00:00.88 bitrate=   6.7kbits/s speed=0.00671x    frame=  136 fps=1.0 q=45.0 size=       1kB time=00:00:00.92 bitrate=   6.4kbits/s speed=0.00693x    frame=  137 fps=1.0 q=45.0 size=       1kB time=00:00:00.94 bitrate=   6.3kbits/s speed=0.0066x    frame=  138 fps=1.0 q=45.0 size=       1kB time=00:00:00.96 bitrate=   6.1kbits/s speed=0.00665x    frame=  139 fps=1.0 q=45.0 size=       1kB time=00:00:00.98 bitrate=   6.0kbits/s speed=0.00672x    frame=  142 fps=0.9 q=45.0 size=       1kB time=00:00:01.04 bitrate=   5.7kbits/s speed=0.00671x    frame=  143 fps=0.9 q=45.0 size=       1kB time=00:00:01.06 bitrate=   5.5kbits/s speed=0.00675x    frame=  144 fps=0.9 q=45.0 size=       1kB time=00:00:01.08 bitrate=   5.4kbits/s speed=0.00681x    frame=  147 fps=0.9 q=45.0 size=       1kB time=00:00:01.14 bitrate=   5.2kbits/s speed=0.00675x    frame=  148 fps=0.9 q=45.0 size=       1kB time=00:00:01.16 bitrate=   5.1kbits/s speed=0.00682x    frame=  149 fps=0.9 q=45.0 size=       1kB time=00:00:01.18 bitrate=   5.0kbits/s speed=0.00689x    frame=  151 fps=0.8 q=45.0 size=       1kB time=00:00:01.22 bitrate=   4.8kbits/s speed=0.00681x    frame=  152 fps=0.8 q=45.0 size=       1kB time=00:00:01.24 bitrate=   4.7kbits/s speed=0.00684x    frame=  153 fps=0.8 q=45.0 size=       1kB time=00:00:01.26 bitrate=   4.7kbits/s speed=0.00689x    frame=  156 fps=0.8 q=45.0 size=       1kB time=00:00:01.32 bitrate=   4.5kbits/s speed=0.00688x    frame=  157 fps=0.8 q=45.0 size=       1kB time=00:00:01.34 bitrate=   4.4kbits/s speed=0.00691x    frame=  158 fps=0.8 q=44.0 size=       1kB time=00:00:01.36 bitrate=   4.3kbits/s speed=0.00696x    frame=  160 fps=0.8 q=44.0 size=       1kB time=00:00:01.40 bitrate=   4.2kbits/s speed=0.00685x    frame=  161 fps=0.8 q=44.0 size=       1kB time=00:00:01.42 bitrate=   4.1kbits/s speed=0.00688x    frame=  162 fps=0.8 q=44.0 size=       1kB time=00:00:01.44 bitrate=   4.1kbits/s speed=0.00692x    frame=  165 fps=0.8 q=44.0 size=       1kB time=00:00:01.50 bitrate=   3.9kbits/s speed=0.00689x    frame=  166 fps=0.8 q=44.0 size=       1kB time=00:00:01.52 bitrate=   3.9kbits/s speed=0.00693x    frame=  167 fps=0.8 q=44.0 size=       1kB time=00:00:01.54 bitrate=   3.8kbits/s speed=0.00698x    frame=  169 fps=0.7 q=44.0 size=       1kB time=00:00:01.58 bitrate=   3.7kbits/s speed=0.00689x    frame=  170 fps=0.7 q=44.0 size=       1kB time=00:00:01.60 bitrate=   3.7kbits/s speed=0.00693x    frame=  171 fps=0.7 q=44.0 size=       1kB time=00:00:01.62 bitrate=   3.6kbits/s speed=0.00696x    frame=  174 fps=0.7 q=44.0 size=       1kB time=00:00:01.68 bitrate=   3.5kbits/s speed=0.00688x    frame=  175 fps=0.7 q=44.0 size=       1kB time=00:00:01.70 bitrate=   3.5kbits/s speed=0.00692x    frame=  176 fps=0.7 q=44.0 size=       1kB time=00:00:01.72 bitrate=   3.4kbits/s speed=0.00695x    frame=  179 fps=0.7 q=44.0 size=       1kB time=00:00:01.78 bitrate=   3.3kbits/s speed=0.00692x    frame=  180 fps=0.7 q=44.0 size=       1kB time=00:00:01.80 bitrate=   3.3kbits/s speed=0.00697x    frame=  181 fps=0.7 q=44.0 size=       1kB time=00:00:01.82 bitrate=   3.2kbits/s speed=0.00701x    frame=  182 fps=0.7 q=44.0 size=       1kB time=00:00:01.84 bitrate=   3.2kbits/s speed=0.00707x    frame=  183 fps=0.7 q=44.0 size=       1kB time=00:00:01.86 bitrate=   3.2kbits/s speed=0.0069x    frame=  184 fps=0.7 q=44.0 size=       1kB time=00:00:01.88 bitrate=   3.1kbits/s speed=0.00694x    frame=  185 fps=0.7 q=44.0 size=       1kB time=00:00:01.90 bitrate=   3.1kbits/s speed=0.00698x    frame=  187 fps=0.7 q=44.0 size=       1kB time=00:00:01.94 bitrate=   3.0kbits/s speed=0.00688x    frame=  188 fps=0.7 q=44.0 size=       1kB time=00:00:01.96 bitrate=   3.0kbits/s speed=0.00692x    frame=  189 fps=0.7 q=44.0 size=       1kB time=00:00:01.98 bitrate=   3.0kbits/s speed=0.00696x    frame=  193 fps=0.6 q=44.0 size=       1kB time=00:00:02.06 bitrate=   2.9kbits/s speed=0.00685x    frame=  194 fps=0.6 q=44.0 size=       1kB time=00:00:02.08 bitrate=   2.8kbits/s speed=0.00688x    frame=  195 fps=0.6 q=44.0 size=       1kB time=00:00:02.10 bitrate=   2.8kbits/s speed=0.00692x    frame=  198 fps=0.6 q=43.0 size=       1kB time=00:00:02.16 bitrate=   2.7kbits/s speed=0.00699x    frame=  199 fps=0.6 q=43.0 size=       1kB time=00:00:02.18 bitrate=   2.7kbits/s speed=0.00691x    frame=  200 fps=0.6 q=43.0 size=       1kB time=00:00:02.20 bitrate=   2.7kbits/s speed=0.00694x    frame=  204 fps=0.6 q=43.0 size=       1kB time=00:00:02.28 bitrate=   2.6kbits/s speed=0.00691x    frame=  205 fps=0.6 q=43.0 size=       1kB time=00:00:02.30 bitrate=   2.6kbits/s speed=0.00694x    frame=  206 fps=0.6 q=43.0 size=       1kB time=00:00:02.32 bitrate=   2.5kbits/s speed=0.00697x    frame=  208 fps=0.6 q=43.0 size=       1kB time=00:00:02.36 bitrate=   2.5kbits/s speed=0.00693x    frame=  209 fps=0.6 q=43.0 size=       1kB time=00:00:02.38 bitrate=   2.5kbits/s speed=0.00695x    frame=  210 fps=0.6 q=43.0 size=       1kB time=00:00:02.40 bitrate=   2.5kbits/s speed=0.00698x    frame=  212 fps=0.6 q=43.0 size=       1kB time=00:00:02.44 bitrate=   2.4kbits/s speed=0.00707x    frame=  214 fps=0.6 q=43.0 size=       1kB time=00:00:02.48 bitrate=   2.4kbits/s speed=0.00689x    frame=  215 fps=0.6 q=43.0 size=       1kB time=00:00:02.50 bitrate=   2.4kbits/s speed=0.00692x    frame=  216 fps=0.6 q=43.0 size=       1kB time=00:00:02.52 bitrate=   2.3kbits/s speed=0.00694x    frame=  219 fps=0.6 q=43.0 size=       1kB time=00:00:02.58 bitrate=   2.3kbits/s speed=0.00703x    frame=  220 fps=0.6 q=43.0 size=       1kB time=00:00:02.60 bitrate=   2.3kbits/s speed=0.00692x    frame=  221 fps=0.6 q=43.0 size=       1kB time=00:00:02.62 bitrate=   2.2kbits/s speed=0.00695x    frame=  225 fps=0.6 q=43.0 size=       1kB time=00:00:02.70 bitrate=   2.2kbits/s speed=0.00693x    frame=  226 fps=0.6 q=43.0 size=    5135kB time=00:00:02.72 bitrate=15461.2kbits/s speed=0.00696x    frame=  227 fps=0.6 q=43.0 size=    5135kB time=00:00:02.74 bitrate=15348.3kbits/s speed=0.00698x    frame=  229 fps=0.6 q=43.0 size=    5135kB time=00:00:02.78 bitrate=15127.6kbits/s speed=0.00692x    frame=  230 fps=0.6 q=43.0 size=    5135kB time=00:00:02.80 bitrate=15019.6kbits/s speed=0.00694x    frame=  231 fps=0.6 q=43.0 size=    5135kB time=00:00:02.82 bitrate=14913.1kbits/s speed=0.00697x    frame=  234 fps=0.6 q=43.0 size=    5135kB time=00:00:02.88 bitrate=14602.5kbits/s speed=0.00691x    frame=  235 fps=0.6 q=43.0 size=    5135kB time=00:00:02.90 bitrate=14501.8kbits/s speed=0.00694x    frame=  236 fps=0.6 q=43.0 size=    5135kB time=00:00:02.92 bitrate=14402.5kbits/s speed=0.00697x    frame=  238 fps=0.6 q=43.0 size=    5135kB time=00:00:02.96 bitrate=14208.0kbits/s speed=0.00691x    frame=  239 fps=0.6 q=43.0 size=    5135kB time=00:00:02.98 bitrate=14112.6kbits/s speed=0.00692x    frame=  240 fps=0.6 q=43.0 size=    5135kB time=00:00:03.00 bitrate=14018.6kbits/s speed=0.00694x    frame=  244 fps=0.5 q=43.0 size=    5135kB time=00:00:03.08 bitrate=13654.6kbits/s speed=0.00685x    frame=  245 fps=0.5 q=43.0 size=    5135kB time=00:00:03.10 bitrate=13566.5kbits/s speed=0.00687x    frame=  246 fps=0.5 q=43.0 size=    5135kB time=00:00:03.12 bitrate=13479.6kbits/s speed=0.0069x    frame=  250 fps=0.5 q=43.0 size=    5135kB time=00:00:03.20 bitrate=13142.7kbits/s speed=0.00682x    frame=  251 fps=0.5 q=43.0 size=    5135kB time=00:00:03.22 bitrate=13061.1kbits/s speed=0.00684x    frame=  252 fps=0.5 q=43.0 size=    5135kB time=00:00:03.24 bitrate=12980.5kbits/s speed=0.00686x    frame=  255 fps=0.5 q=43.0 size=    5135kB time=00:00:03.30 bitrate=12744.6kbits/s speed=0.00692x    frame=  256 fps=0.5 q=43.0 size=    5135kB time=00:00:03.32 bitrate=12667.8kbits/s speed=0.00683x    frame=  257 fps=0.5 q=43.0 size=    5135kB time=00:00:03.34 bitrate=12592.0kbits/s speed=0.00685x    frame=  261 fps=0.5 q=43.0 size=    5135kB time=00:00:03.42 bitrate=12297.5kbits/s speed=0.00684x    frame=  262 fps=0.5 q=43.0 size=    5135kB time=00:00:03.44 bitrate=12226.0kbits/s speed=0.00686x    frame=  263 fps=0.5 q=43.0 size=    5135kB time=00:00:03.46 bitrate=12155.4kbits/s speed=0.00687x    frame=  266 fps=0.5 q=43.0 size=    5135kB time=00:00:03.52 bitrate=11948.3kbits/s speed=0.00683x    frame=  267 fps=0.5 q=43.0 size=    5135kB time=00:00:03.54 bitrate=11880.8kbits/s speed=0.00685x    frame=  268 fps=0.5 q=43.0 size=    5135kB time=00:00:03.56 bitrate=11814.0kbits/s speed=0.00687x    frame=  271 fps=0.5 q=43.0 size=    5135kB time=00:00:03.62 bitrate=11618.3kbits/s speed=0.00686x    frame=  272 fps=0.5 q=43.0 size=    5135kB time=00:00:03.64 bitrate=11554.5kbits/s speed=0.00686x    frame=  273 fps=0.5 q=43.0 size=    5135kB time=00:00:03.66 bitrate=11491.3kbits/s speed=0.00687x    frame=  275 fps=0.5 q=43.0 size=    5135kB time=00:00:03.70 bitrate=11367.1kbits/s speed=0.00693x    frame=  276 fps=0.5 q=43.0 size=    5135kB time=00:00:03.72 bitrate=11306.0kbits/s speed=0.00685x    frame=  277 fps=0.5 q=43.0 size=    5135kB time=00:00:03.74 bitrate=11245.6kbits/s speed=0.00686x    frame=  278 fps=0.5 q=43.0 size=    5135kB time=00:00:03.76 bitrate=11185.8kbits/s speed=0.00688x    frame=  280 fps=0.5 q=42.0 size=    5135kB time=00:00:03.80 bitrate=11068.1kbits/s speed=0.00683x    frame=  281 fps=0.5 q=42.0 size=    5135kB time=00:00:03.82 bitrate=11010.2kbits/s speed=0.00685x    frame=  282 fps=0.5 q=42.0 size=    5135kB time=00:00:03.84 bitrate=10952.8kbits/s speed=0.00686x    frame=  285 fps=0.5 q=42.0 size=    5135kB time=00:00:03.90 bitrate=10784.4kbits/s speed=0.00682x    frame=  286 fps=0.5 q=42.0 size=    5135kB time=00:00:03.92 bitrate=10729.4kbits/s speed=0.00683x    frame=  287 fps=0.5 q=42.0 size=    5135kB time=00:00:03.94 bitrate=10674.9kbits/s speed=0.00684x    frame=  290 fps=0.5 q=42.0 size=    5135kB time=00:00:04.00 bitrate=10514.8kbits/s speed=0.00687x    frame=  291 fps=0.5 q=42.0 size=    5135kB time=00:00:04.02 bitrate=10462.5kbits/s speed=0.00685x    frame=  292 fps=0.5 q=42.0 size=    5135kB time=00:00:04.04 bitrate=10410.7kbits/s speed=0.00687x    frame=  294 fps=0.5 q=42.0 size=    5135kB time=00:00:04.08 bitrate=10308.7kbits/s speed=0.0068x    frame=  295 fps=0.5 q=42.0 size=    5135kB time=00:00:04.10 bitrate=10258.4kbits/s speed=0.00682x    frame=  296 fps=0.5 q=42.0 size=    5135kB time=00:00:04.12 bitrate=10208.6kbits/s speed=0.00683x    frame=  298 fps=0.5 q=42.0 size=    5135kB time=00:00:04.16 bitrate=10110.5kbits/s speed=0.00689x    frame=  299 fps=0.5 q=42.0 size=    5135kB time=00:00:04.18 bitrate=10062.1kbits/s speed=0.00682x    frame=  300 fps=0.5 q=42.0 size=    5135kB time=00:00:04.20 bitrate=10014.2kbits/s speed=0.00684x    frame=  301 fps=0.5 q=42.0 size=    5135kB time=00:00:04.22 bitrate=9966.8kbits/s speed=0.00685x    frame=  302 fps=0.5 q=42.0 size=    5135kB time=00:00:04.24 bitrate=9919.8kbits/s speed=0.00688x    frame=  303 fps=0.5 q=42.0 size=    5135kB time=00:00:04.26 bitrate=9873.2kbits/s speed=0.0069x    frame=  304 fps=0.5 q=42.0 size=    5135kB time=00:00:04.28 bitrate=9827.1kbits/s speed=0.00681x    frame=  305 fps=0.5 q=42.0 size=    5135kB time=00:00:04.30 bitrate=9781.4kbits/s speed=0.00682x    frame=  306 fps=0.5 q=42.0 size=    5135kB time=00:00:04.32 bitrate=9736.1kbits/s speed=0.00683x    frame=  308 fps=0.5 q=42.0 size=    5135kB time=00:00:04.36 bitrate=9646.8kbits/s speed=0.00681x    frame=  309 fps=0.5 q=42.0 size=    5135kB time=00:00:04.38 bitrate=9602.8kbits/s speed=0.00682x    frame=  310 fps=0.5 q=42.0 size=    5135kB time=00:00:04.40 bitrate=9559.1kbits/s speed=0.00684x    frame=  312 fps=0.5 q=42.0 size=    5135kB time=00:00:04.44 bitrate=9473.0kbits/s speed=0.00688x    frame=  313 fps=0.5 q=42.0 size=    5135kB time=00:00:04.46 bitrate=9430.6kbits/s speed=0.00679x    frame=  314 fps=0.5 q=42.0 size=    5135kB time=00:00:04.48 bitrate=9388.5kbits/s speed=0.0068x    frame=  315 fps=0.5 q=42.0 size=    5135kB time=00:00:04.50 bitrate=9346.8kbits/s speed=0.00682x    frame=  318 fps=0.5 q=42.0 size=    5135kB time=00:00:04.56 bitrate=9223.8kbits/s speed=0.0068x    frame=  319 fps=0.5 q=42.0 size=    5135kB time=00:00:04.58 bitrate=9183.5kbits/s speed=0.00681x    frame=  320 fps=0.5 q=42.0 size=    5135kB time=00:00:04.60 bitrate=9143.6kbits/s speed=0.00683x    frame=  322 fps=0.5 q=42.0 size=    5135kB time=00:00:04.64 bitrate=9064.8kbits/s speed=0.00687x    frame=  323 fps=0.5 q=42.0 size=    5135kB time=00:00:04.66 bitrate=9025.9kbits/s speed=0.00678x    frame=  324 fps=0.5 q=42.0 size=    5135kB time=00:00:04.68 bitrate=8987.4kbits/s speed=0.00679x    frame=  325 fps=0.5 q=42.0 size=    5135kB time=00:00:04.70 bitrate=8949.1kbits/s speed=0.00681x    frame=  328 fps=0.5 q=42.0 size=    5135kB time=00:00:04.76 bitrate=8836.3kbits/s speed=0.0068x    frame=  329 fps=0.5 q=42.0 size=    5135kB time=00:00:04.78 bitrate=8799.4kbits/s speed=0.0068x    frame=  330 fps=0.5 q=42.0 size=    5135kB time=00:00:04.80 bitrate=8762.7kbits/s speed=0.00681x    frame=  333 fps=0.5 q=39.0 size=    5135kB time=00:00:04.86 bitrate=8654.6kbits/s speed=0.00678x    frame=  334 fps=0.5 q=43.0 size=    5135kB time=00:00:04.88 bitrate=8619.1kbits/s speed=0.00679x    frame=  335 fps=0.5 q=43.0 size=    5135kB time=00:00:04.90 bitrate=8583.9kbits/s speed=0.00681x    frame=  336 fps=0.5 q=43.0 size=    5135kB time=00:00:04.92 bitrate=8549.0kbits/s speed=0.00683x    frame=  338 fps=0.5 q=43.0 size=    8669kB time=00:00:04.96 bitrate=14314.6kbits/s speed=0.00688x    frame=  340 fps=0.5 q=43.0 size=    8669kB time=00:00:05.00 bitrate=14200.1kbits/s speed=0.00693x    frame=  341 fps=0.5 q=43.0 size=    8669kB time=00:00:05.02 bitrate=14143.5kbits/s speed=0.00694x    frame=  342 fps=0.5 q=43.0 size=    8669kB time=00:00:05.04 bitrate=14087.4kbits/s speed=0.00696x    frame=  344 fps=0.5 q=43.0 size=    8669kB time=00:00:05.08 bitrate=13976.5kbits/s speed=0.00697x    frame=  345 fps=0.5 q=43.0 size=    8669kB time=00:00:05.10 bitrate=13921.7kbits/s speed=0.00699x    frame=  346 fps=0.5 q=43.0 size=    8669kB time=00:00:05.12 bitrate=13867.3kbits/s speed=0.00702x    frame=  348 fps=0.5 q=43.0 size=    8669kB time=00:00:05.16 bitrate=13759.8kbits/s speed=0.00707x    frame=  349 fps=0.5 q=43.0 size=    8669kB time=00:00:05.18 bitrate=13706.7kbits/s speed=0.00705x    frame=  350 fps=0.5 q=43.0 size=    8669kB time=00:00:05.20 bitrate=13654.0kbits/s speed=0.00707x    frame=  351 fps=0.5 q=43.0 size=    8669kB time=00:00:05.22 bitrate=13601.7kbits/s speed=0.00709x    frame=  354 fps=0.5 q=43.0 size=    8669kB time=00:00:05.28 bitrate=13447.2kbits/s speed=0.0071x    frame=  355 fps=0.5 q=43.0 size=    8669kB time=00:00:05.30 bitrate=13396.4kbits/s speed=0.00712x    frame=  356 fps=0.5 q=43.0 size=    8669kB time=00:00:05.32 bitrate=13346.1kbits/s speed=0.00714x    frame=  358 fps=0.5 q=43.0 size=    8669kB time=00:00:05.36 bitrate=13246.5kbits/s speed=0.00712x    frame=  359 fps=0.5 q=43.0 size=    8669kB time=00:00:05.38 bitrate=13197.3kbits/s speed=0.00714x    frame=  360 fps=0.5 q=43.0 size=    8669kB time=00:00:05.40 bitrate=13148.4kbits/s speed=0.00715x    frame=  363 fps=0.5 q=43.0 size=    8669kB time=00:00:05.46 bitrate=13003.9kbits/s speed=0.00714x    frame=  364 fps=0.5 q=43.0 size=    8669kB time=00:00:05.48 bitrate=12956.5kbits/s speed=0.00715x    frame=  365 fps=0.5 q=43.0 size=    8669kB time=00:00:05.50 bitrate=12909.4kbits/s speed=0.00716x    frame=  368 fps=0.5 q=43.0 size=    8669kB time=00:00:05.56 bitrate=12770.1kbits/s speed=0.00715x    frame=  369 fps=0.5 q=43.0 size=    8669kB time=00:00:05.58 bitrate=12724.3kbits/s speed=0.00716x    frame=  370 fps=0.5 q=43.0 size=    8669kB time=00:00:05.60 bitrate=12678.9kbits/s speed=0.00717x    frame=  372 fps=0.5 q=43.0 size=    8669kB time=00:00:05.64 bitrate=12589.0kbits/s speed=0.0072x    frame=  373 fps=0.5 q=43.0 size=    8669kB time=00:00:05.66 bitrate=12544.5kbits/s speed=0.00713x    frame=  374 fps=0.5 q=43.0 size=    8669kB time=00:00:05.68 bitrate=12500.4kbits/s speed=0.00714x    frame=  375 fps=0.5 q=43.0 size=    8669kB time=00:00:05.70 bitrate=12456.5kbits/s speed=0.00714x    frame=  378 fps=0.5 q=43.0 size=    8669kB time=00:00:05.76 bitrate=12326.8kbits/s speed=0.00715x    frame=  379 fps=0.5 q=43.0 size=    8669kB time=00:00:05.78 bitrate=12284.1kbits/s speed=0.00716x    frame=  380 fps=0.5 q=43.0 size=    8669kB time=00:00:05.80 bitrate=12241.8kbits/s speed=0.00717x    frame=  382 fps=0.5 q=43.0 size=    8669kB time=00:00:05.84 bitrate=12157.9kbits/s speed=0.0071x    frame=  383 fps=0.5 q=43.0 size=    8669kB time=00:00:05.86 bitrate=12116.5kbits/s speed=0.00711x    frame=  384 fps=0.5 q=43.0 size=    8669kB time=00:00:05.88 bitrate=12075.3kbits/s speed=0.00713x    frame=  387 fps=0.5 q=43.0 size=    8669kB time=00:00:05.94 bitrate=11953.3kbits/s speed=0.00716x    frame=  388 fps=0.5 q=43.0 size=    8669kB time=00:00:05.96 bitrate=11913.2kbits/s speed=0.00715x    frame=  389 fps=0.5 q=43.0 size=    8669kB time=00:00:05.98 bitrate=11873.4kbits/s speed=0.00716x    frame=  390 fps=0.5 q=42.0 size=    8669kB time=00:00:06.00 bitrate=11833.8kbits/s speed=0.00717x    frame=  391 fps=0.5 q=42.0 size=    8669kB time=00:00:06.02 bitrate=11794.5kbits/s speed=0.0071x    frame=  392 fps=0.5 q=43.0 size=    8669kB time=00:00:06.04 bitrate=11755.4kbits/s speed=0.00711x    frame=  393 fps=0.5 q=43.0 size=    8669kB time=00:00:06.06 bitrate=11716.6kbits/s speed=0.00712x    frame=  396 fps=0.5 q=42.0 size=    8669kB time=00:00:06.12 bitrate=11601.8kbits/s speed=0.00713x    frame=  397 fps=0.5 q=42.0 size=    8669kB time=00:00:06.14 bitrate=11564.0kbits/s speed=0.00712x    frame=  398 fps=0.5 q=42.0 size=    8669kB time=00:00:06.16 bitrate=11526.5kbits/s speed=0.00713x    frame=  402 fps=0.5 q=42.0 size=    8669kB time=00:00:06.24 bitrate=11378.7kbits/s speed=0.00709x    frame=  403 fps=0.5 q=42.0 size=    8669kB time=00:00:06.26 bitrate=11342.4kbits/s speed=0.0071x    frame=  404 fps=0.5 q=42.0 size=    8669kB time=00:00:06.28 bitrate=11306.3kbits/s speed=0.00711x    frame=  407 fps=0.5 q=42.0 size=    8669kB time=00:00:06.34 bitrate=11199.3kbits/s speed=0.00715x    frame=  408 fps=0.5 q=42.0 size=    8669kB time=00:00:06.36 bitrate=11164.1kbits/s speed=0.0071x    frame=  409 fps=0.5 q=42.0 size=    8669kB time=00:00:06.38 bitrate=11129.1kbits/s speed=0.00712x    frame=  412 fps=0.5 q=42.0 size=    8669kB time=00:00:06.44 bitrate=11025.4kbits/s speed=0.00709x    frame=  413 fps=0.5 q=42.0 size=    8669kB time=00:00:06.46 bitrate=10991.3kbits/s speed=0.0071x    frame=  414 fps=0.5 q=42.0 size=    8669kB time=00:00:06.48 bitrate=10957.3kbits/s speed=0.00711x    frame=  416 fps=0.5 q=42.0 size=    8669kB time=00:00:06.52 bitrate=10890.1kbits/s speed=0.00715x    frame=  417 fps=0.5 q=42.0 size=    8669kB time=00:00:06.54 bitrate=10856.8kbits/s speed=0.00711x    frame=  418 fps=0.5 q=42.0 size=    8669kB time=00:00:06.56 bitrate=10823.7kbits/s speed=0.00711x    frame=  419 fps=0.5 q=42.0 size=    8669kB time=00:00:06.58 bitrate=10790.8kbits/s speed=0.00712x    frame=  421 fps=0.4 q=42.0 size=    8669kB time=00:00:06.62 bitrate=10725.7kbits/s speed=0.00708x    frame=  422 fps=0.5 q=42.0 size=    8669kB time=00:00:06.64 bitrate=10693.4kbits/s speed=0.00709x    frame=  423 fps=0.5 q=42.0 size=    8669kB time=00:00:06.66 bitrate=10661.2kbits/s speed=0.0071x    frame=  426 fps=0.5 q=42.0 size=    8669kB time=00:00:06.72 bitrate=10566.1kbits/s speed=0.0071x    frame=  427 fps=0.4 q=42.0 size=    8669kB time=00:00:06.74 bitrate=10534.7kbits/s speed=0.0071x    frame=  428 fps=0.5 q=42.0 size=    8669kB time=00:00:06.76 bitrate=10503.6kbits/s speed=0.00711x    frame=  430 fps=0.4 q=42.0 size=    8669kB time=00:00:06.80 bitrate=10441.8kbits/s speed=0.00707x    frame=  431 fps=0.4 q=42.0 size=    8669kB time=00:00:06.82 bitrate=10411.2kbits/s speed=0.00708x    frame=  432 fps=0.4 q=42.0 size=    8669kB time=00:00:06.84 bitrate=10380.7kbits/s speed=0.00709x    frame=  436 fps=0.4 q=42.0 size=    8669kB time=00:00:06.92 bitrate=10260.7kbits/s speed=0.00706x    frame=  437 fps=0.4 q=42.0 size=    8669kB time=00:00:06.94 bitrate=10231.2kbits/s speed=0.00706x    frame=  438 fps=0.4 q=42.0 size=    8669kB time=00:00:06.96 bitrate=10201.8kbits/s speed=0.00708x    frame=  439 fps=0.4 q=42.0 size=    8669kB time=00:00:06.98 bitrate=10172.5kbits/s speed=0.00709x    frame=  440 fps=0.4 q=42.0 size=    8669kB time=00:00:07.00 bitrate=10143.5kbits/s speed=0.00708x    frame=  441 fps=0.4 q=42.0 size=    8669kB time=00:00:07.02 bitrate=10114.6kbits/s speed=0.00709x    frame=  442 fps=0.4 q=42.0 size=    8669kB time=00:00:07.04 bitrate=10085.9kbits/s speed=0.00709x    frame=  443 fps=0.4 q=42.0 size=    8669kB time=00:00:07.06 bitrate=10057.3kbits/s speed=0.0071x    frame=  444 fps=0.4 q=42.0 size=    8669kB time=00:00:07.08 bitrate=10028.9kbits/s speed=0.0071x    frame=  445 fps=0.4 q=42.0 size=    8669kB time=00:00:07.10 bitrate=10000.6kbits/s speed=0.00706x    frame=  446 fps=0.4 q=42.0 size=    8669kB time=00:00:07.12 bitrate=9972.6kbits/s speed=0.00707x    frame=  447 fps=0.4 q=42.0 size=    8669kB time=00:00:07.14 bitrate=9944.6kbits/s speed=0.00708x    frame=  449 fps=0.4 q=42.0 size=    8669kB time=00:00:07.18 bitrate=9889.2kbits/s speed=0.00706x    frame=  450 fps=0.4 q=42.0 size=    8669kB time=00:00:07.20 bitrate=9861.8kbits/s speed=0.00707x    frame=  451 fps=0.4 q=42.0 size=    8669kB time=00:00:07.22 bitrate=9834.4kbits/s speed=0.00708x    frame=  455 fps=0.4 q=42.0 size=    8669kB time=00:00:07.30 bitrate=9726.7kbits/s speed=0.00705x    frame=  456 fps=0.4 q=42.0 size=    8669kB time=00:00:07.32 bitrate=9700.1kbits/s speed=0.00706x    frame=  457 fps=0.4 q=42.0 size=    8669kB time=00:00:07.34 bitrate=9673.7kbits/s speed=0.00707x    frame=  459 fps=0.4 q=42.0 size=    8669kB time=00:00:07.38 bitrate=9621.3kbits/s speed=0.00708x    frame=  460 fps=0.4 q=42.0 size=    8669kB time=00:00:07.40 bitrate=9595.3kbits/s speed=0.00709x    frame=  461 fps=0.4 q=42.0 size=    8669kB time=00:00:07.42 bitrate=9569.4kbits/s speed=0.00708x    frame=  462 fps=0.4 q=42.0 size=    8669kB time=00:00:07.44 bitrate=9543.7kbits/s speed=0.00708x    frame=  464 fps=0.4 q=42.0 size=    8669kB time=00:00:07.48 bitrate=9492.7kbits/s speed=0.00711x    frame=  465 fps=0.4 q=42.0 size=    8669kB time=00:00:07.50 bitrate=9467.3kbits/s speed=0.00706x    frame=  466 fps=0.4 q=42.0 size=    8669kB time=00:00:07.52 bitrate=9442.2kbits/s speed=0.00707x    frame=  467 fps=0.4 q=42.0 size=    8669kB time=00:00:07.54 bitrate=9417.1kbits/s speed=0.00708x    frame=  469 fps=0.4 q=42.0 size=    8669kB time=00:00:07.58 bitrate=9367.4kbits/s speed=0.00708x    frame=  470 fps=0.4 q=42.0 size=    8669kB time=00:00:07.60 bitrate=9342.8kbits/s speed=0.00708x    frame=  471 fps=0.4 q=42.0 size=    8669kB time=00:00:07.62 bitrate=9318.3kbits/s speed=0.0071x    frame=  473 fps=0.4 q=42.0 size=    8669kB time=00:00:07.66 bitrate=9269.6kbits/s speed=0.00706x    frame=  474 fps=0.4 q=42.0 size=    8669kB time=00:00:07.68 bitrate=9245.5kbits/s speed=0.00707x    frame=  475 fps=0.4 q=42.0 size=    8669kB time=00:00:07.70 bitrate=9221.5kbits/s speed=0.00708x    frame=  477 fps=0.4 q=42.0 size=    8669kB time=00:00:07.74 bitrate=9173.8kbits/s speed=0.00708x    frame=  478 fps=0.4 q=42.0 size=    8669kB time=00:00:07.76 bitrate=9150.2kbits/s speed=0.0071x    frame=  479 fps=0.4 q=42.0 size=    8669kB time=00:00:07.78 bitrate=9126.7kbits/s speed=0.00711x    frame=  480 fps=0.4 q=42.0 size=    8669kB time=00:00:07.80 bitrate=9103.3kbits/s speed=0.00706x    frame=  481 fps=0.4 q=42.0 size=    8669kB time=00:00:07.82 bitrate=9080.0kbits/s speed=0.00707x    frame=  482 fps=0.4 q=42.0 size=    8669kB time=00:00:07.84 bitrate=9056.8kbits/s speed=0.00708x    frame=  483 fps=0.4 q=42.0 size=    8669kB time=00:00:07.86 bitrate=9033.8kbits/s speed=0.00708x    frame=  484 fps=0.4 q=42.0 size=    8669kB time=00:00:07.88 bitrate=9010.9kbits/s speed=0.00708x    frame=  485 fps=0.4 q=42.0 size=    8669kB time=00:00:07.90 bitrate=8988.0kbits/s speed=0.00709x    frame=  486 fps=0.4 q=42.0 size=    8669kB time=00:00:07.92 bitrate=8965.4kbits/s speed=0.0071x    frame=  487 fps=0.4 q=42.0 size=    8669kB time=00:00:07.94 bitrate=8942.8kbits/s speed=0.00705x    frame=  488 fps=0.4 q=42.0 size=    8669kB time=00:00:07.96 bitrate=8920.3kbits/s speed=0.00706x    frame=  489 fps=0.4 q=42.0 size=    8669kB time=00:00:07.98 bitrate=8898.0kbits/s speed=0.00707x    frame=  490 fps=0.4 q=42.0 size=   13801kB time=00:00:08.00 bitrate=14130.1kbits/s speed=0.00707x    frame=  491 fps=0.4 q=42.0 size=   13801kB time=00:00:08.02 bitrate=14094.8kbits/s speed=0.00708x    frame=  492 fps=0.4 q=42.0 size=   13801kB time=00:00:08.04 bitrate=14059.8kbits/s speed=0.00709x    frame=  494 fps=0.4 q=42.0 size=   13801kB time=00:00:08.08 bitrate=13990.2kbits/s speed=0.00705x    frame=  495 fps=0.4 q=42.0 size=   13801kB time=00:00:08.10 bitrate=13955.7kbits/s speed=0.00706x    frame=  496 fps=0.4 q=42.0 size=   13801kB time=00:00:08.12 bitrate=13921.3kbits/s speed=0.00707x    frame=  498 fps=0.4 q=42.0 size=   13801kB time=00:00:08.16 bitrate=13853.1kbits/s speed=0.00707x    frame=  499 fps=0.4 q=42.0 size=   13801kB time=00:00:08.18 bitrate=13819.2kbits/s speed=0.00708x    frame=  500 fps=0.4 q=42.0 size=   13801kB time=00:00:08.20 bitrate=13785.5kbits/s speed=0.00709x    frame=  500 fps=0.4 q=42.0 size=   13801kB time=00:00:08.20 bitrate=13785.5kbits/s speed=0.00708x    frame=  500 fps=0.4 q=-1.0 Lsize=   16888kB time=00:00:09.94 bitrate=13916.9kbits/s speed=0.0071x    
video:16883kB audio:0kB subtitle:0kB other streams:0kB global headers:0kB muxing overhead: 0.027700%
bench: utime=5347.452s
bench: maxrss=5156756kB
[libx264 @ 0x41621c0] frame I:2     Avg QP:33.40  size:550362
[libx264 @ 0x41621c0] frame P:108   Avg QP:43.29  size: 72976
[libx264 @ 0x41621c0] frame B:390   Avg QP:45.86  size: 21297
[libx264 @ 0x41621c0] consecutive B-frames:  0.6%  0.4%  3.6% 32.8% 41.0% 21.6%  0.0%  0.0%  0.0%  0.0%  0.0%  0.0%  0.0%  0.0%  0.0%  0.0%  0.0%
[libx264 @ 0x41621c0] mb I  I16..4: 11.6% 78.4% 10.1%
[libx264 @ 0x41621c0] mb P  I16..4:  1.0%  3.4%  0.0%  P16..4: 37.3% 21.5%  5.2%  0.2%  0.0%    skip:31.4%
[libx264 @ 0x41621c0] mb B  I16..4:  0.0%  0.1%  0.0%  B16..8: 39.6%  7.2%  0.4%  direct: 0.4%  skip:52.3%  L0:46.0% L1:52.9% BI: 1.1%
[libx264 @ 0x41621c0] final ratefactor: 34.22
[libx264 @ 0x41621c0] 8x8 transform intra:77.7% inter:85.0%
[libx264 @ 0x41621c0] direct mvs  spatial:99.2% temporal:0.8%
[libx264 @ 0x41621c0] coded y,uvDC,uvAC intra: 47.1% 53.1% 20.8% inter: 2.6% 3.6% 0.1%
[libx264 @ 0x41621c0] i16 v,h,dc,p: 31% 23%  2% 44%
[libx264 @ 0x41621c0] i8 v,h,dc,ddl,ddr,vr,hd,vl,hu:  4%  2%  1% 13% 18% 17% 18% 14% 12%
[libx264 @ 0x41621c0] i4 v,h,dc,ddl,ddr,vr,hd,vl,hu:  6%  3%  3% 13% 16% 15% 15% 12% 16%
[libx264 @ 0x41621c0] i8c dc,h,v,p: 42% 18% 17% 23%
[libx264 @ 0x41621c0] Weighted P-Frames: Y:0.0% UV:0.0%
[libx264 @ 0x41621c0] ref P L0: 56.1%  8.8% 12.6%  3.9%  3.3%  3.1%  2.8%  1.3%  1.1%  1.0%  1.0%  1.0%  1.2%  1.2%  1.1%  0.6%
[libx264 @ 0x41621c0] ref B L0: 95.3%  2.2%  0.9%  0.3%  0.2%  0.2%  0.2%  0.1%  0.1%  0.1%  0.1%  0.1%  0.1%  0.1%  0.1%
[libx264 @ 0x41621c0] ref B L1: 99.2%  0.8%
[libx264 @ 0x41621c0] kb/s:13830.40
